<?xml version="1.0" encoding="UTF-8"?>
<svg width="14px" height="12px" viewBox="0 0 14 12" version="1.1" xmlns="http://www.w3.org/2000/svg" xmlns:xlink="http://www.w3.org/1999/xlink">
    <!-- Generator: Sketch 53.1 (72631) - https://sketchapp.com -->
    <title>xiangmu</title>
    <desc>Created with Sketch.</desc>
    <g id="Page-1" stroke="none" stroke-width="1" fill="none" fill-rule="evenodd">
        <g id="个人中心-默认" transform="translate(-450.000000, -2001.000000)" fill="#5286FF" fill-rule="nonzero">
            <g id="xiangmu" transform="translate(450.000000, 2001.000000)">
                <path d="M10.795569,6.18679437 L6.11878823,6.18679437 C5.72905649,6.18679437 5.41727111,5.888972 5.41727111,5.51669404 C5.41727111,5.14441608 5.72905649,4.84659371 6.11878823,4.84659371 L10.795569,4.84659371 C11.1853008,4.84659371 11.4970862,5.14441608 11.4970862,5.51669404 C11.4970862,5.888972 11.1853008,6.18679437 10.795569,6.18679437 Z M2.80606849,8.15986757 C2.80606849,8.56937332 3.11785387,8.86719569 3.54655878,8.86719569 C3.97526369,8.86719569 4.28704908,8.53214553 4.28704908,8.15986757 C4.28704908,7.7875896 3.97526369,7.45253944 3.54655878,7.45253944 C3.11785387,7.45253944 2.80606849,7.75036181 2.80606849,8.15986757 L2.80606849,8.15986757 Z M2.80606849,5.51669404 C2.80606849,5.9261998 3.11785387,6.22402217 3.54655878,6.22402217 C3.97526369,6.22402217 4.28704908,5.888972 4.28704908,5.51669404 C4.28704908,5.14441608 3.97526369,4.80936591 3.54655878,4.80936591 C3.11785387,4.80936591 2.80606849,5.14441608 2.80606849,5.51669404 L2.80606849,5.51669404 Z M10.795569,8.8299679 L6.11878823,8.8299679 C5.72905649,8.8299679 5.41727111,8.53214553 5.41727111,8.15986757 C5.41727111,7.7875896 5.72905649,7.48976724 6.11878823,7.48976724 L10.795569,7.48976724 C11.1853008,7.48976724 11.4970862,7.7875896 11.4970862,8.15986757 C11.4970862,8.53214553 11.1853008,8.8299679 10.795569,8.8299679 Z M13.9913693,10.9891801 L13.9913693,2.61292594 C13.9913693,1.60777545 13.0170399,1.68223104 13.0170399,1.68223104 L7.52182247,1.68223104 C7.21003709,1.68223104 7.01517122,1.53331985 7.01517122,1.53331985 C7.01517122,1.53331985 6.78133218,1.16104189 6.35262727,0.565397154 C5.96289554,-0.104703177 5.45624428,0.00698021178 5.45624428,0.00698021178 L1.20816838,0.00698021178 C0,0.00698021178 0,1.0865863 0,1.0865863 L0,10.9147245 C0,12.1432418 0.974329336,11.9943306 0.974329336,11.9943306 L13.1339594,11.9943306 C14.147262,11.9943306 13.9913693,10.9891801 13.9913693,10.9891801 L13.9913693,10.9891801 Z" id="形状"></path>
            </g>
        </g>
    </g>
</svg>