<?xml version="1.0" encoding="UTF-8"?>
<svg width="18px" height="19px" viewBox="0 0 18 19" version="1.1" xmlns="http://www.w3.org/2000/svg" xmlns:xlink="http://www.w3.org/1999/xlink">
    <!-- Generator: Sketch 53.1 (72631) - https://sketchapp.com -->
    <title>reeor</title>
    <desc>Created with Sketch.</desc>
    <g id="Page-1" stroke="none" stroke-width="1" fill="none" fill-rule="evenodd">
        <g id="弹窗" transform="translate(-1412.000000, -74.000000)" fill="#FFFFFF" fill-rule="nonzero">
            <g id="reeor" transform="translate(1412.000000, 74.000000)">
                <path d="M9,0.203125 C13.9706471,0.203125 18,4.23247794 18,9.203125 C18,14.1737721 13.9706471,18.203125 9,18.203125 C4.02935294,18.203125 0,14.1737721 0,9.203125 C0,4.23247794 4.02935294,0.203125 9,0.203125 Z M9,1.79136029 C4.90658825,1.79136029 1.58823529,5.10971322 1.58823529,9.203125 C1.58823529,13.2965368 4.90658822,16.6148897 9,16.6148897 C13.0934118,16.6148897 16.4117647,13.2965368 16.4117647,9.203125 C16.4117647,5.10971322 13.0934118,1.79136029 9,1.79136029 Z M11.8074706,5.27224265 L12.9308823,6.39565441 L10.1223529,9.203125 L12.9303529,12.0105956 L11.8069412,13.1340073 L9,10.3254779 L6.19252941,13.1334779 L5.06911765,12.0100662 L7.87764705,9.203125 L5.06964705,6.39618383 L6.19305883,5.27277205 L9,8.07971324 L11.8069412,5.27224265 L11.8074706,5.27224265 Z" id="形状"></path>
            </g>
        </g>
    </g>
</svg>