<svg width="1024" height="1024" xmlns="http://www.w3.org/2000/svg" p-id="2962" version="1.1" class="icon" t="1589600446415">
 <defs>
  <style type="text/css"/>
 </defs>
 <g>
  <title>background</title>
  <rect fill="none" id="canvas_background" height="770" width="1662" y="-1" x="-1"/>
 </g>
 <g>
  <title>Layer 1</title>
  <path id="svg_1" fill="#666666" p-id="2963" d="m987.52,367.36c-108.16,-146.56 -266.88,-239.36 -444.16,-239.36c-177.28,0 -335.36,92.8 -444.16,239.36c-48,64.64 -48,160.64 0,225.28c108.8,146.56 267.52,239.36 444.16,239.36c177.28,0 335.36,-92.8 444.16,-239.36c48,-64.64 48,-160.64 0,-225.28zm-443.52,336.64c-123.52,0 -224,-100.48 -224,-224s100.48,-224 224,-224c123.52,0 224,100.48 224,224s-100.48,224 -224,224zm0,-384c-88.32,0 -160,71.68 -160,160s71.68,160 160,160c88.32,0 160,-71.68 160,-160s-71.68,-160 -160,-160z"/>
  <ellipse ry="228" rx="260" id="svg_9" cy="478" cx="525.5" fill-opacity="null" stroke-opacity="null" stroke-width="null" stroke="null" fill="#666666"/>
  <ellipse id="svg_10" cy="497" cx="877.5" fill-opacity="null" stroke-opacity="null" stroke-width="null" stroke="null" fill="#666666"/>
  <ellipse ry="80.5" rx="132" id="svg_11" cy="671.5" cx="555.5" fill-opacity="null" stroke-opacity="null" stroke-width="null" stroke="null" fill="#666666"/>
  <ellipse id="svg_12" cy="554" cx="765.5" fill-opacity="null" stroke-opacity="null" stroke-width="null" stroke="null" fill="#666666"/>
 </g>
</svg>