<?xml version="1.0" encoding="UTF-8"?>
<svg width="14px" height="14px" viewBox="0 0 14 14" version="1.1" xmlns="http://www.w3.org/2000/svg" xmlns:xlink="http://www.w3.org/1999/xlink">
    <!-- Generator: Sketch 53.1 (72631) - https://sketchapp.com -->
    <title>zaizhi复制</title>
    <desc>Created with Sketch.</desc>
    <g id="Page-1" stroke="none" stroke-width="1" fill="none" fill-rule="evenodd">
        <g id="个人中心-默认" transform="translate(-450.000000, -1304.000000)" fill="#4E7EF6" fill-rule="nonzero">
            <g id="zaizhi复制" transform="translate(450.000000, 1304.000000)">
                <path d="M6.38569427,7.9216816 C8.11210953,7.9216816 9.45993872,6.29940248 9.66572616,3.97652582 C9.7851143,2.6320956 9.50078203,1.56252668 8.84414729,0.88284251 C8.27862455,0.297268459 7.4507621,0 6.38412338,0 C5.31905555,0 4.49119309,0.297268459 3.92409946,0.88284251 C3.26746472,1.56103286 2.98470335,2.63060179 3.10409148,3.97503201 C3.31144982,6.29940248 4.66084992,7.9216816 6.38569427,7.9216816 Z M7.50103079,11.1034998 C7.50103079,10.4282971 7.7178145,9.8023901 8.09011697,9.28104994 C7.56072485,9.53798549 6.98263494,9.67392232 6.38569427,9.67392232 C5.54526464,9.67392232 4.74096564,9.40951771 4.05605476,8.9075971 C4.01206966,8.87473325 3.95394649,8.86427657 3.89739422,8.87622706 C1.60388533,9.40055484 0,10.5702091 0,11.7204439 C0,13.4009816 3.29888265,14 6.38412338,14 C7.28895976,14 8.20950511,13.9477166 9.0640728,13.8311993 C8.1246767,13.2501067 7.50103079,12.2462655 7.50103079,11.1034998 Z" id="形状"></path>
                <path d="M11.3076923,8.12 C9.82217195,8.12 8.61538462,9.3180107 8.61538462,10.7927273 C8.61538462,12.2674439 9.82217195,13.4654545 11.3076923,13.4654545 C12.7932127,13.4654545 14,12.2674439 14,10.7927273 C14,9.31958289 12.791629,8.12 11.3076923,8.12 Z M10.921267,12.2941711 L9.6020362,11.1920642 L10.0074661,10.7235508 L10.8531674,11.4294652 L12.4590498,9.61515508 L12.9325792,10.0192086 L10.921267,12.2941711 L10.921267,12.2941711 Z" id="形状"></path>
            </g>
        </g>
    </g>
</svg>