<?xml version="1.0" standalone="no"?><!DOCTYPE svg PUBLIC "-//W3C//DTD SVG 1.1//EN" "http://www.w3.org/Graphics/SVG/1.1/DTD/svg11.dtd"><svg t="1578884651701" class="icon" viewBox="0 0 1024 1024" version="1.1" xmlns="http://www.w3.org/2000/svg" p-id="1948" xmlns:xlink="http://www.w3.org/1999/xlink" width="64" height="64"><defs><style type="text/css"></style></defs><path d="M847.7 64.4H176.3c-61.8 0-111.9 50.1-111.9 111.9v671.3c0 61.8 50.1 111.9 111.9 111.9h671.3c61.8 0 111.9-50.1 111.9-111.9V176.3c0.1-61.8-50-111.9-111.8-111.9z m55.9 783.3c0 30.9-25.1 55.9-55.9 55.9H176.3c-30.9 0-55.9-25.1-55.9-55.9V176.3c0-30.9 25.1-55.9 55.9-55.9h671.3c30.9 0 55.9 25.1 55.9 55.9v671.4h0.1z" p-id="1949" fill="#4B85FF"></path><path d="M932.22151369 883.69245547L909.0226201 906.89134905 898.72730408 896.5874249c-1.4892054-1.4892054-3.9080882-1.4892054-5.3886855 1e-8-1.49781353 1.4892054-1.49781353 3.9080882 0 5.38868547l12.99826691 12.9982669c0.74890676 0.74890676 1.72162476 1.11905609 2.69434274 1.1190561s1.9540441-0.37875746 2.69434276-1.1190561l25.89323631-25.89323631c1.4892054-1.4892054 1.4892054-3.89948007 0-5.39729361-1.4892054-1.48059728-3.9080882-1.48059728-5.39729361 0.00860812m0 0" p-id="1950" fill="#4B85FF"></path></svg>