<?xml version="1.0" encoding="UTF-8"?>
<svg width="14px" height="14px" viewBox="0 0 14 14" version="1.1" xmlns="http://www.w3.org/2000/svg" xmlns:xlink="http://www.w3.org/1999/xlink">
    <!-- Generator: Sketch 53.1 (72631) - https://sketchapp.com -->
    <title>shixi复制</title>
    <desc>Created with Sketch.</desc>
    <g id="Page-1" stroke="none" stroke-width="1" fill="none" fill-rule="evenodd">
        <g id="个人中心-默认" transform="translate(-450.000000, -1826.000000)" fill="#4E7EF6" fill-rule="nonzero">
            <g id="shixi复制" transform="translate(450.000000, 1826.000000)">
                <path d="M7.00000828,2.10479953e-16 L7.08696007,2.10479953e-16 C9.82609878,0.583324693 11.8695735,1.16664939 13.6956439,1.71110947 C13.869564,1.74998889 14,1.90555103 14,2.06111317 L14,6.61111687 C14,10.8499963 10.1739225,13.2222337 7.13044424,14 L6.86957231,14 C3.82609405,13.2222337 0,10.8499963 0,6.61110206 L0,2.06109836 C0,1.90555103 0.130452524,1.74998889 0.304356106,1.71110947 C2.13045962,1.1666642 4.17391777,0.544445267 6.91305649,0 L7.00000828,0 Z M6.86667372,3.5 C6.82222316,3.5 6.73333898,3.5 6.68890535,3.53796544 L3.22223586,5.17088425 C3.1777853,5.17088425 3.13333474,5.20886415 3.13333474,5.24682958 C3.04445056,5.32278939 3,5.43671463 3,5.51265997 C3,5.58860531 3.04445056,5.62658521 3.13333474,5.66455065 C3.1777853,5.70253055 3.22223586,5.74051045 3.26666949,5.74051045 L6.64445479,7.37341479 C6.68890535,7.41139469 6.77778953,7.41139469 6.82222316,7.41139469 C6.86667372,7.41139469 6.95555791,7.41139469 7.00000846,7.37341479 L9.62223586,6.04430627 C9.71112004,6.00632637 9.80000423,5.96834647 9.84445479,5.96834647 C9.93333898,5.96834647 10.0222401,6.00632637 10.0666737,6.08227171 L10.1111243,6.12025161 C10.1555748,6.15823151 10.1555748,6.27215675 10.1555748,6.31012219 L10.1555748,7.63924517 C10.1555748,7.82911575 10.3777938,7.98100643 10.6000127,7.98100643 C10.8222316,7.98100643 11,7.86709566 11,7.67721061 L11,5.62659967 C11,5.51267443 10.9111327,5.39874919 10.8222316,5.32280385 L7.04444209,3.5759598 C7.00000846,3.5379799 6.95557483,3.50001446 6.86667372,3.50001446 L6.86667372,3.5 Z M4.68890111,7.44936013 C4.55556637,7.44936013 4.42223163,7.52531993 4.37778107,7.63924517 L4.37778107,7.67721061 C4.33334744,7.71519051 4.33334744,7.79113585 4.33334744,7.82911575 L4.33334744,7.98100643 C4.33334744,8.13291158 4.4222147,8.20885691 4.51111581,8.28481672 L6.68890535,9.4620201 C6.73333898,9.5 6.82222316,9.5 6.86667372,9.5 C6.91112428,9.5 7.00000846,9.5 7.04445902,9.4620201 L9.22223163,8.28481672 C9.31111581,8.20885691 9.40001693,8.13291158 9.40001693,7.98100643 L9.40001693,7.82911575 C9.40001693,7.63924517 9.26668218,7.4873545 9.04444633,7.4873545 C8.95557907,7.4873545 8.95557907,7.4873545 8.86667795,7.52531993 L7.04445902,8.51265274 C7.00000846,8.55063264 6.91112428,8.55063264 6.86667372,8.55063264 C6.82222316,8.55063264 6.73333898,8.55063264 6.68890535,8.51265274 L4.86666949,7.52531993 C4.7777853,7.48734003 4.73333474,7.44936013 4.68890111,7.44936013 Z" id="合并形状"></path>
            </g>
        </g>
    </g>
</svg>