<?xml version="1.0" encoding="UTF-8"?>
<svg width="16px" height="16px" viewBox="0 0 16 16" version="1.1" xmlns="http://www.w3.org/2000/svg" xmlns:xlink="http://www.w3.org/1999/xlink">
    <!-- Generator: Sketch 53.1 (72631) - https://sketchapp.com -->
    <title>形状</title>
    <desc>Created with Sketch.</desc>
    <g id="Page-1" stroke="none" stroke-width="1" fill="none" fill-rule="evenodd">
        <g id="活动详情页" transform="translate(-1124.000000, -277.000000)" fill="#666666" fill-rule="nonzero">
            <g id="collection" transform="translate(1124.000000, 277.000000)">
                <path d="M7.53003809,0.114812603 C8.02876303,-0.142716655 8.63310964,0.0463842964 8.91440615,0.547983419 L8.95036376,0.617849671 L10.8487413,4.63395498 L15.0917395,5.27768826 C15.4772714,5.33607703 15.8011216,5.61073424 15.9352005,5.99302714 C16.0692795,6.37532004 15.9919915,6.80367405 15.7339056,7.10866607 L15.6790472,7.16841379 L12.6097423,10.2911947 L13.3344265,14.7033694 C13.4004713,15.1050532 13.2502395,15.5122121 12.9432528,15.7635297 C12.6362662,16.0148474 12.2220721,16.0697613 11.8647743,15.9065146 L11.796547,15.8723042 L7.99979202,13.7888442 L4.203037,15.872786 C3.85726921,16.0627061 3.43959988,16.0385432 3.11599731,15.8098989 C2.79239474,15.5812546 2.61527344,15.1851628 2.65501569,14.7790177 L2.66515759,14.7038512 L3.38984177,10.2916765 L0.320536877,7.16889562 C0.0406531214,6.88397827 -0.0666440014,6.4612695 0.0412988874,6.06880696 C0.149241776,5.67634443 0.454932586,5.37772649 0.83685132,5.29166149 L0.907844547,5.27817009 L5.15084276,4.63443684 L7.04922029,0.618331499 C7.15227849,0.400003603 7.32125256,0.223220999 7.53003809,0.115294432 L7.53003809,0.114812603 Z M6.06868387,5.95515004 L1.75423141,6.60996553 L4.87608972,9.78671208 L4.13849769,14.2754988 L7.99979202,12.155901 L11.8610864,14.2754988 L11.1234943,9.78671208 L14.2453526,6.60996553 L9.93090018,5.95515004 L7.99979202,1.87014213 L6.06822286,5.95515004 L6.06868387,5.95515004 Z" id="形状"></path>
            </g>
        </g>
    </g>
</svg>