<?xml version="1.0" encoding="UTF-8"?>
<svg width="14px" height="14px" viewBox="0 0 14 14" version="1.1" xmlns="http://www.w3.org/2000/svg" xmlns:xlink="http://www.w3.org/1999/xlink">
    <!-- Generator: Sketch 53.1 (72631) - https://sketchapp.com -->
    <title>qiuzhiyixiang-2复制</title>
    <desc>Created with Sketch.</desc>
    <g id="Page-1" stroke="none" stroke-width="1" fill="none" fill-rule="evenodd">
        <g id="个人中心-默认" transform="translate(-450.000000, -500.000000)" fill="#4E7EF6" fill-rule="nonzero">
            <g id="qiuzhiyixiang-2复制" transform="translate(450.000000, 500.000000)">
                <path d="M13.7835053,0.0700921743 C13.7133726,0 13.6081735,0 13.5029745,0 C13.4175618,0.00701262216 13.3343792,0.0308334173 13.2582114,0.0700921743 L0.245089915,7.55944102 C0.0872940995,7.65577342 -0.00626629568,7.82965771 0.00032681051,8.01433924 C0.00032681051,8.22461576 0.139890874,8.36480011 0.315222609,8.43419138 L3.39264524,9.69444867 L11.7545664,2.48406667 L5.0028919,10.7794755 L5.0028919,13.5088648 C5.0028919,13.7191413 5.14245597,13.8943718 5.31708638,13.9644639 C5.3711546,13.9921087 5.43190852,14.0040095 5.49241811,13.9988091 C5.6326835,13.9988091 5.77294889,13.9287169 5.87744661,13.8242796 L7.7668214,11.5147424 L11.3001066,12.9495293 C11.3493405,12.9731719 11.4032829,12.9853917 11.4579051,12.9852763 L11.474737,12.9845753 C11.5441683,12.9845753 11.6493674,12.9495293 11.7195001,12.9144832 C11.8590641,12.8450919 11.9291968,12.7049076 11.9642632,12.5647232 L13.993202,0.595082562 C14.0282684,0.384806039 13.9230693,0.209575603 13.7835053,0.0700921743 Z" id="路径"></path>
            </g>
        </g>
    </g>
</svg>