<?xml version="1.0" encoding="UTF-8"?>
<svg width="24px" height="20px" viewBox="0 0 24 20" version="1.1" xmlns="http://www.w3.org/2000/svg" xmlns:xlink="http://www.w3.org/1999/xlink">
    <!-- Generator: Sketch 53.1 (72631) - https://sketchapp.com -->
    <title>weixin-2</title>
    <desc>Created with Sketch.</desc>
    <g id="Page-1" stroke="none" stroke-width="1" fill="none" fill-rule="evenodd">
        <g id="弹窗" transform="translate(-85.000000, -85.000000)" fill="#01CB7A" fill-rule="nonzero">
            <g id="模板管理-2" transform="translate(61.000000, 67.000000)">
                <g id="模板管理">
                    <g id="weixin-2" transform="translate(24.000000, 18.000000)">
                        <path d="M16.2419976,6.4299126 C16.4973247,6.4299126 16.7462687,6.4411229 17,6.46514499 C16.4271097,2.8137874 12.858913,0 8.54069276,0 C3.82352389,0 0,3.3582881 0,7.49969631 C0,9.81542573 1.19684596,11.8861298 3.07350042,13.2633963 C2.83413123,14.4677037 2.53571764,16.0515601 2.57880409,15.9987115 C2.64423167,15.9746895 4.2942833,15.0554442 5.3315498,14.4532905 C6.32253825,14.804013 7.404487,15.0009941 8.54069276,15.0009941 C8.66037736,15.0009941 8.77687037,14.9977911 8.89655496,14.9945882 C8.76410401,14.4773125 8.69548484,13.9472251 8.69548484,13.3931156 C8.69388905,9.5479798 12.0721862,6.4299126 16.2419976,6.4299126 Z M12,4 C12.5530643,4 13,4.44693572 13,4.99850523 C13,5.55156951 12.5515695,6 12,6 C11.4484305,6 11,5.55007474 11,4.99850523 C11,4.44693572 11.4484305,4 12,4 Z M4.99925206,6 C4.44577412,6 4,5.55007474 4,4.99850523 C4,4.44693572 4.44727001,4 4.99925206,4 C5.55123411,4 6,4.44693572 6,4.99850523 C6,5.55156951 5.55123411,6 4.99925206,6 L4.99925206,6 Z M24,13.2513218 C24,9.79857538 20.6432309,7 16.5016351,7 C12.3584042,7 9,9.80017092 9,13.2513218 C9,16.7040681 12.3584042,19.5058346 16.5016351,19.5058346 C17.6281884,19.5058346 18.6958797,19.296819 19.6572923,18.9250584 C20.646501,19.4404175 21.7240026,19.9829007 21.7779595,19.9988561 C21.8155657,20.0387446 21.6030085,19.0287684 21.3724657,18.009219 C22.9780903,16.8572399 24,15.1563953 24,13.2513218 Z M14.0014948,12 C13.4484305,12 13,11.5530643 13,11.0014948 C13,10.4499253 13.4484305,10 14.0014948,10 C14.5530643,10 15,10.4499253 15,11.0014948 C15,11.5530643 14.5530643,12 14.0014948,12 Z M19,12 C18.4492537,12 18,11.5530643 18,11.0014948 C18,10.4499253 18.4492537,10 19,10 C19.5507463,10 20,10.4499253 20,11.0014948 C20,11.5530643 19.5507463,12 19,12 Z" id="形状"></path>
                    </g>
                </g>
            </g>
        </g>
    </g>
</svg>