<?xml version="1.0" standalone="no"?><!DOCTYPE svg PUBLIC "-//W3C//DTD SVG 1.1//EN" "http://www.w3.org/Graphics/SVG/1.1/DTD/svg11.dtd"><svg t="1577588602100" class="icon" viewBox="0 0 1024 1024" version="1.1" xmlns="http://www.w3.org/2000/svg" p-id="7175" data-spm-anchor-id="a313x.7781069.0.i33" xmlns:xlink="http://www.w3.org/1999/xlink" width="16" height="16"><defs><style type="text/css"></style></defs><path d="M83 39h649l209 198v747.9H83z" fill="#ffffff" p-id="7176" data-spm-anchor-id="a313x.7781069.0.i31" class="selected"></path><path d="M743 28H72v967.9h880V237L743 28z m184.7 203.5H748.5V52.3l179.2 179.2zM941 984.9H83V39h654.5v198c0 3 2.5 5.5 5.5 5.5h198v742.4z" fill="#ffffff" p-id="7177" data-spm-anchor-id="a313x.7781069.0.i34" class="selected"></path><path d="M72 710.3h880V996H72z" fill="#077467" p-id="7178" data-spm-anchor-id="a313x.7781069.0.i35" class=""></path><path d="M373.7 870v49.9h-17.2V786.4h37.9c14.4 0 25.6 3.5 33.5 10.4 8 6.9 11.9 16.9 11.9 29.8 0 13.1-4.7 23.7-14 31.8-9.3 8.1-20.9 12-34.9 11.5l-17.2 0.1z m0-68.4v53.2h15.9c10.5 0 18.5-2.4 23.9-7.1 5.5-4.7 8.2-11.5 8.2-20.4 0-17.2-10.2-25.7-30.5-25.7h-17.5z m90.7 118.2V786.4h38.1c20.2 0 37 5.9 50.4 17.7 13.4 11.8 20.1 27.6 20.1 47.4 0 20.7-6.7 37.2-20.1 49.7-13.4 12.5-30.7 18.7-51.8 18.7h-36.7z m17.2-118v102.8H501c16.9 0 30.2-4.6 39.7-13.9 9.5-9.3 14.3-22.2 14.3-38.8 0-16.7-4.9-29.2-14.6-37.6-9.8-8.4-22.6-12.6-38.5-12.6l-20.3 0.1z m185.9 0H616v44.6h47.7v15.2H616v58.3h-17.2V786.4h68.7v15.4z" fill="#ffffff" p-id="7179" data-spm-anchor-id="a313x.7781069.0.i36" class="selected"></path><path d="M635.4 505.9c-25.6-1.9-50.3-11.4-70.2-28.5-38.9 8.5-75.9 20.9-112.9 36.1-29.4 52.2-56.9 78.8-80.7 78.8-4.7 0-10.4-0.9-14.2-3.8-10.4-4.7-16.1-15.2-16.1-25.6 0-8.5 1.9-32.3 92.1-71.2 20.9-38 37-76.9 50.3-117.7-11.4-22.8-36.1-78.8-19-107.2 5.7-10.4 17.1-16.1 29.4-15.2 9.5 0 19 4.7 24.7 12.3 12.3 17.1 11.4 53.1-4.7 106.3 15.2 28.4 35.1 54.1 58.8 75.9 19.9-3.8 39.9-6.6 59.8-6.6 44.6 0.9 51.2 21.8 50.3 34.2-0.2 32.2-31.5 32.2-47.6 32.2z m-265.8 58.9l2.8-0.9c13.3-4.7 23.7-14.2 31.3-26.6-14.1 5.6-25.5 15.1-34.1 27.5z m126.2-284.7H493c-0.9 0-2.8 0-3.8 0.9-3.8 16.1-0.9 33.2 5.7 48.4 5.7-16.1 5.7-33.2 0.9-49.3z m-23.1 204.5c20.9-7.6 48.3-15.4 69.2-20.2 0 0-29.1-32.1-39.6-48.3l-29.6 68.5zM631.6 468c-8.5 0-16.1 0-24.7 1.9 9.5 4.7 19 6.6 28.5 7.6 6.4 0.8 12.9 0.2 19-1.9-0.1-2.9-3.9-7.6-22.8-7.6z" fill="#ffffff" p-id="7180" data-spm-anchor-id="a313x.7781069.0.i32" class="selected"></path></svg>