<?xml version="1.0" encoding="UTF-8"?>
<svg width="14px" height="12px" viewBox="0 0 14 12" version="1.1" xmlns="http://www.w3.org/2000/svg" xmlns:xlink="http://www.w3.org/1999/xlink">
    <!-- Generator: Sketch 53.1 (72631) - https://sketchapp.com -->
    <title>jiaoyu</title>
    <desc>Created with Sketch.</desc>
    <g id="Page-1" stroke="none" stroke-width="1" fill="none" fill-rule="evenodd">
        <g id="个人中心-默认" transform="translate(-450.000000, -1068.000000)" fill="#5286FF" fill-rule="nonzero">
            <g id="jiaoyu" transform="translate(450.000000, 1068.000000)">
                <path d="M13.4087459,3.49306449 L13.4087459,5.95219087 L13.8964177,6.47041632 L12.8802403,7.59486774 L11.8500628,6.50341652 L12.5559036,5.82263452 L12.5559036,3.88173357 C9.56453859,5.19074171 8.60669513,5.59774423 7.94285478,5.91552398 C7.28018111,6.23330373 6.80184272,6.2320815 6.14500244,5.96807986 C5.48699548,5.70530045 2.35562904,4.49162625 0.801612612,3.70206579 C-0.236731702,3.17528474 -0.303232397,2.84039377 0.819112801,2.39305766 C2.28329495,1.80272066 4.70415387,0.855492552 5.98750077,0.339711573 C6.74584212,0.0145984471 7.14834638,-0.163847108 7.84485374,0.207710759 C9.08970023,0.754047487 11.9340636,1.88705452 13.3480786,2.50672503 C14.5789249,3.07750636 13.7517495,3.26450751 13.4087459,3.49306449 Z M10.8490522,5.56474402 L10.8490522,10.4477681 C10.8490522,10.4477681 9.47353763,12 7.05734541,12 C4.45215121,12 3.04630301,10.4477681 3.04630301,10.4477681 L3.04630301,5.82263452 C3.86647834,6.17830339 4.78815475,6.48263862 5.90349989,6.88841891 C6.5918405,7.14875386 7.46334972,7.23797664 8.08518961,6.88841891 C8.81086395,6.57186138 9.78504091,6.04752479 10.8490522,5.56474402 Z" id="形状"></path>
            </g>
        </g>
    </g>
</svg>