<?xml version="1.0" encoding="UTF-8"?>
<svg width="14px" height="14px" viewBox="0 0 14 14" version="1.1" xmlns="http://www.w3.org/2000/svg" xmlns:xlink="http://www.w3.org/1999/xlink">
    <!-- Generator: Sketch 53.1 (72631) - https://sketchapp.com -->
    <title>形状</title>
    <desc>Created with Sketch.</desc>
    <g id="Page-1" stroke="none" stroke-width="1" fill="none" fill-rule="evenodd">
        <g id="招聘公告详情页" transform="translate(-1240.000000, -270.000000)" fill="#595959" fill-rule="nonzero">
            <path d="M1247,270 C1247.32812,270 1247.59531,270.265625 1247.59531,270.595312 C1247.59531,270.925 1247.32969,271.190625 1247,271.190625 C1243.79063,271.190625 1241.18906,273.792188 1241.18906,277.001562 C1241.18906,280.210938 1243.79063,282.810937 1247,282.810937 C1250.20937,282.810937 1252.81094,280.209375 1252.81094,277 C1252.81094,276.671875 1253.07656,276.404687 1253.40625,276.404687 C1253.73594,276.404687 1254,276.671875 1254,277 C1254,280.865625 1250.86562,284 1247,284 C1243.13438,284 1240,280.865625 1240,277 C1240,273.134375 1243.13438,270 1247,270 Z M1250.60313,272.976562 C1250.38125,272.746875 1250.38438,272.382812 1250.61094,272.157812 C1250.8375,271.93125 1251.20156,271.929688 1251.43438,272.154688 L1252.45938,273.179688 C1252.76875,273.489062 1252.76875,273.989062 1252.45938,274.298438 L1251.43438,275.323438 C1251.20625,275.551562 1250.83594,275.551562 1250.60781,275.323438 C1250.37969,275.095313 1250.37969,274.725 1250.60781,274.496875 L1250.78125,274.323438 L1250.02656,274.323438 C1247.975,274.323438 1247.27813,275.196875 1247.27813,277.839063 C1247.27813,278.1625 1247.01719,278.423438 1246.69375,278.423438 C1246.37031,278.423438 1246.10938,278.1625 1246.10938,277.839063 C1246.10938,274.571875 1247.30156,273.154688 1250.02656,273.154688 L1250.78125,273.154688 L1250.60313,272.976562 L1250.60313,272.976562 Z" id="形状"></path>
        </g>
    </g>
</svg>