<?xml version="1.0" encoding="UTF-8"?>
<svg width="22px" height="28px" viewBox="0 0 22 28" version="1.1" xmlns="http://www.w3.org/2000/svg" xmlns:xlink="http://www.w3.org/1999/xlink">
    <!-- Generator: Sketch 53.1 (72631) - https://sketchapp.com -->
    <title>remen复制</title>
    <desc>Created with Sketch.</desc>
    <g id="Page-1" stroke="none" stroke-width="1" fill="none" fill-rule="evenodd">
        <g id="内容列表页" transform="translate(-156.000000, -647.000000)" fill="#FF5069" fill-rule="nonzero">
            <g id="remen复制" transform="translate(156.000000, 647.000000)">
                <path d="M20.9413269,22.5044874 C21.1127748,22.2736483 21.2605057,22.0174885 21.3797296,21.7304026 C24.8083108,13.4448049 12.961828,1.33537763 11.7261604,0.103907671 C11.7290634,0.108419451 11.7321695,0.113833588 11.7348112,0.118372712 C11.6585508,0.0420279184 11.6156453,0 11.6156453,0 C11.7959762,0.783327116 11.91012,1.51292303 11.9710238,2.20005352 C11.9676854,2.17634616 11.9655373,2.15351382 11.9621118,2.12980646 C12.0487066,3.03648292 12.036224,3.86361532 11.9432136,4.62777421 C11.928815,4.74341251 11.9141842,4.8592969 11.8961859,4.97222814 C11.893341,4.99049401 11.8895091,5.00859582 11.8866062,5.02664294 C11.2914154,8.59866053 8.84623584,10.7273185 6.24754857,12.946759 C5.56794013,12.3303405 5.16628867,11.4414924 5.16654993,10.1354823 C5.16895938,9.54096638 5.25360925,8.86064458 5.43321446,8.08046204 L5.42720536,8.08431756 C5.42935354,8.07463774 5.43103725,8.06558683 5.43321446,8.05566092 C5.43321446,8.05566092 3.579568,9.18456307 2.03769783,11.314807 C2.03743656,11.3145883 2.03720433,11.3141234 2.03720433,11.3141234 C2.03192097,11.3213423 2.02689887,11.3295182 2.02138328,11.336737 C1.92259606,11.4740592 1.82497002,11.6145533 1.72955022,11.7600241 C1.7249926,11.7665593 1.72089945,11.7735594 1.71657406,11.780122 C1.62801413,11.9158753 1.54238865,12.0533078 1.45975052,12.1923347 C1.44029742,12.2247664 1.42103126,12.2572972 1.40195289,12.2899258 C1.31826099,12.4335645 1.23602056,12.5799103 1.15711851,12.7306037 C1.1532576,12.7380413 1.14896124,12.7452875 1.14510032,12.7527251 C1.0627177,12.9116099 0.984364347,13.0723204 0.910106928,13.23472 C0.891905464,13.2742596 0.874603912,13.3144828 0.856895948,13.3542412 C0.796860144,13.4892221 0.739852985,13.6253805 0.685912491,13.7626257 C0.670584942,13.8014817 0.654734863,13.839408 0.639871785,13.878264 C0.608229685,13.9618823 0.578474499,14.0467858 0.548748343,14.1321542 C0.548022607,14.1339589 0.547296871,14.1357636 0.5468324,14.1375683 C0.516380507,14.2243038 0.485928615,14.3110668 0.457886167,14.3995797 C0.446390505,14.4352911 0.436288257,14.4723151 0.425286095,14.508464 C0.380101199,14.6563997 0.33852012,14.8052911 0.300575581,14.9550209 C0.287119852,15.0067697 0.274172164,15.0586346 0.261734178,15.1106089 C0.217115914,15.2985451 0.175865067,15.488286 0.142074788,15.6830035 C0.142074788,15.6843707 0.141581287,15.6857379 0.141581287,15.6870504 C0.122841049,15.7933651 0.106127074,15.8999879 0.0914474281,16.0068673 C0.0905184857,16.0141408 0.0895605139,16.0213323 0.0885735126,16.0285785 C0.0745095113,16.1312266 0.0621994322,16.2340812 0.0516480531,16.3371023 C0.0501965806,16.3488602 0.0492386088,16.3606182 0.0480484013,16.3725949 C0.0379815517,16.4731386 0.029426683,16.5738116 0.0223863681,16.6745834 C0.0214283963,16.689486 0.0204704245,16.704826 0.0197446883,16.7197286 C0.0132551788,16.8192035 0.00837766342,16.918766 0.0051138458,17.0183811 L0.00366237333,17.0716748 C0.000901387527,17.1707295 -0.000298628542,17.2698172 6.2721615e-05,17.3689054 L6.2721615e-05,17.4280781 C0.00102069344,17.5270092 0.00340110829,17.626405 0.00749426064,17.7264572 C0.00821999687,17.7474848 0.00871349751,17.7687039 0.00990370493,17.7897042 C0.0144613285,17.8897563 0.020441395,17.9905194 0.0279019635,18.0916927 C0.0300501428,18.1133766 0.0312403502,18.1346229 0.0329240582,18.1562795 C0.0410813335,18.2583551 0.051386788,18.3611417 0.0626502143,18.4643931 C0.0650596586,18.4858309 0.0672078379,18.5068585 0.0698495178,18.5281049 C0.0818386803,18.6333524 0.0964695228,18.7392835 0.112058337,18.8456795 C0.115164488,18.8657501 0.118067433,18.8856566 0.120941349,18.9057546 C0.13772037,19.0148303 0.156647571,19.1252732 0.177055274,19.2359622 C0.180654926,19.2535992 0.183267576,19.2712088 0.186867228,19.2888184 C0.208960481,19.4055912 0.233106622,19.5220111 0.259295704,19.6380302 C0.26216962,19.651128 0.264811299,19.6642259 0.267452979,19.6773511 C0.296145605,19.8030777 0.326920572,19.9283746 0.359766628,20.053196 C0.361218101,20.0595125 0.362669573,20.0656103 0.364324252,20.071708 C0.505813788,20.6083911 0.690441085,21.1610979 0.925927978,21.7303205 C1.04486163,22.0174065 1.1925925,22.2735389 1.36430169,22.5044053 C3.37380726,25.8238726 9.05771538,27.9999727 9.05771538,27.9999727 L9.05771538,27.9997539 C9.03809147,27.9921796 7.40837819,27.3657804 5.59098951,26.277621 C7.40837819,27.3658077 9.0381205,27.9921522 9.05771538,27.9995625 L9.05867335,28 L9.05867335,27.9990976 C9.05986356,27.9995898 9.0610828,28 9.0610828,28 C9.16875302,27.0689326 9.59798246,26.4338106 10.2361078,25.9843006 C10.2356143,25.9838084 10.2348886,25.9838084 10.2344241,25.9833982 C10.2380238,25.9811286 10.2418556,25.9788591 10.2454553,25.9763981 C10.3742299,25.8862719 10.5113941,25.8035833 10.656222,25.7274572 C10.6638858,25.7233829 10.6715496,25.7195274 10.6792424,25.7154805 C10.8243315,25.6402841 10.9768232,25.571623 11.136311,25.5088136 C11.1411009,25.5070089 11.1454263,25.5049581 11.1502161,25.5031534 C12.2849483,25.9463469 13.089006,26.6736459 13.2422234,28 C13.2422234,28 13.2429201,27.9995625 13.2431814,27.9995625 L13.2431814,28 C13.2431814,28 14.483871,27.5247591 16.0106749,26.6804273 C16.008759,26.682232 16.006843,26.6842828 16.0049271,26.6863063 C17.7484358,25.7230001 19.8682533,24.2766874 20.9413269,22.5044874 L20.9413269,22.5044874 Z M7.61451631,21.6427373 L6.4929345,21.6427373 L6.4929345,19.3549365 L4.29528907,19.3549365 L4.29528907,21.6427373 L3.17370727,21.6427373 L3.17370727,16.4104939 L4.29528907,16.4104939 L4.29528907,18.4698619 L6.4929345,18.4698619 L6.4929345,16.4104939 L7.61451631,16.4104939 L7.61451631,21.6427373 L7.61451631,21.6427373 Z M13.203353,21.0163381 C12.7157743,21.4934384 12.0640922,21.7319612 11.2481615,21.7319612 C10.4221576,21.7319612 9.76533724,21.4946415 9.27787472,21.0199749 C8.79032512,20.5452535 8.54656484,19.8915376 8.54656484,19.0586903 C8.54656484,18.5257806 8.63118568,18.0784854 8.8004564,17.7167774 C8.92673451,17.4502815 9.0991404,17.2111572 9.31764507,16.9993769 C9.53612071,16.7876514 9.77546851,16.6306141 10.0356595,16.528265 C10.3816905,16.3903139 10.7808164,16.32127 11.2330081,16.32127 C12.0514064,16.32127 12.7062817,16.5604491 13.1976632,17.0386431 C13.6888995,17.5168918 13.9346048,18.181983 13.9346048,19.0338071 C13.9346338,19.8784671 13.6908155,20.5393199 13.203353,21.0163381 L13.203353,21.0163381 Z M14.4120522,17.2955958 L14.4120522,16.4104939 L18.8262993,16.4104939 L18.8262993,17.2955958 L17.181839,17.2955958 L17.181839,21.6427373 L16.0602862,21.6427373 L16.0602862,17.2955958 L14.4120522,17.2955958 Z" id="形状"></path>
            </g>
        </g>
    </g>
</svg>