<?xml version="1.0" encoding="UTF-8"?>
<svg width="14px" height="14px" viewBox="0 0 14 14" version="1.1" xmlns="http://www.w3.org/2000/svg" xmlns:xlink="http://www.w3.org/1999/xlink">
    <!-- Generator: Sketch 53.1 (72631) - https://sketchapp.com -->
    <title>shetuan复制</title>
    <desc>Created with Sketch.</desc>
    <g id="Page-1" stroke="none" stroke-width="1" fill="none" fill-rule="evenodd">
        <g id="个人中心-默认" transform="translate(-450.000000, -1478.000000)" fill="#4E7EF6" fill-rule="nonzero">
            <g id="shetuan复制" transform="translate(450.000000, 1478.000000)">
                <path d="M10.638125,2.62214162 C9.878125,2.62214162 9.023125,2.42185607 8.453125,2.02128497 C7.788125,1.62071387 6.933125,1.12 5.603125,1.12 C4.178125,1.12 2.848125,2.12142775 2.848125,2.12142775 L2.848125,10.1328497 C2.848125,10.1328497 3.798125,9.43185031 4.748125,9.23156476 C5.698125,9.03127921 7.028125,9.33170753 7.788125,9.63213585 C8.453125,9.93256418 8.928125,10.4332781 10.828125,10.6335636 C12.158125,10.7337064 13.488125,9.63213585 13.488125,9.63213585 L13.488125,1.62071387 C13.393125,1.82099942 12.158125,2.7222844 10.638125,2.62214162 Z" id="路径"></path>
                <path d="M0.937536765,0 L0.937536765,0 C0.443419118,0 0.048125,0.4 0.048125,0.8 L0.048125,14 L1.728125,14 L1.728125,0.8 C1.728125,0.4 1.33283088,0 0.937536765,0 Z" id="路径"></path>
            </g>
        </g>
    </g>
</svg>