<?xml version="1.0" encoding="UTF-8"?>
<svg width="14px" height="14px" viewBox="0 0 14 14" version="1.1" xmlns="http://www.w3.org/2000/svg" xmlns:xlink="http://www.w3.org/1999/xlink">
    <!-- Generator: Sketch 53.1 (72631) - https://sketchapp.com -->
    <title>duihua</title>
    <desc>Created with Sketch.</desc>
    <g id="Page-1" stroke="none" stroke-width="1" fill="none" fill-rule="evenodd">
        <g id="个人中心-默认" transform="translate(-450.000000, -2789.000000)" fill="#5286FF" fill-rule="nonzero">
            <g id="duihua" transform="translate(450.000000, 2789.000000)">
                <path d="M14,5.89976856 C14,9.15386153 10.85,11.795937 7,11.795937 C6.86111515,11.8012905 6.72450179,11.8338749 6.5975,11.8919398 C5.8415,12.1943484 4.5885,13.1487757 3.71,13.8639961 C3.61062809,13.9469379 3.48786604,13.9946411 3.36,14 C3.19482363,13.9967676 3.03791103,13.9250822 2.92483334,13.8011943 C2.81026882,13.6756039 2.74789683,13.5089708 2.751,13.336781 C2.751,12.1355467 2.6845,10.5579016 2.3345,10.2926941 C0.8995,9.21266322 0,7.64301837 0,5.89616846 C0,2.63847538 3.15,0 7,0 C10.85,0.00360010286 14,2.6456756 14,5.89976856 Z M9.275,4.50871794 L4.725,4.50871794 C4.43488888,4.50871794 4.2,4.76266666 4.2,5.0756923 C4.2,5.38871794 4.43488888,5.64266665 4.725,5.64266665 L9.275,5.64266665 C9.56511112,5.64266665 9.8,5.38871794 9.8,5.0756923 C9.8,4.76266666 9.56511112,4.50871794 9.275,4.50871794 Z M8.575,7.15487179 L5.425,7.15487179 C5.13488888,7.15487179 4.9,7.40841026 4.9,7.72143588 C4.9,8.03487178 5.13488888,8.28841024 5.425,8.28841025 L8.575,8.28841025 C8.86511112,8.28841025 9.1,8.03487178 9.1,7.72143588 C9.1,7.40841024 8.86511112,7.15446153 8.575,7.15446153 L8.575,7.15487179 Z" id="形状"></path>
            </g>
        </g>
    </g>
</svg>