<?xml version="1.0" encoding="UTF-8"?>
<svg width="14px" height="14px" viewBox="0 0 14 14" version="1.1" xmlns="http://www.w3.org/2000/svg" xmlns:xlink="http://www.w3.org/1999/xlink">
    <!-- Generator: Sketch 53.1 (72631) - https://sketchapp.com -->
    <title>jiangbei</title>
    <desc>Created with Sketch.</desc>
    <g id="Page-1" stroke="none" stroke-width="1" fill="none" fill-rule="evenodd">
        <g id="个人中心-默认" transform="translate(-450.000000, -2585.000000)" fill="#5286FF" fill-rule="nonzero">
            <g id="jiangbei" transform="translate(450.000000, 2585.000000)">
                <path d="M6.3,10.398912 C4.68952692,10.1260711 3.35282492,9.02725726 2.71538463,7.54208754 C1.21538461,7.51066217 0,6.25364759 0,4.71380471 C0,3.31537598 1.00769232,2.14478114 2.31538462,1.92480359 L2.31538462,0.903479243 C2.31538462,0.400673401 2.71538463,0 3.20000001,0 L10.9692308,0 C11.4615385,0 11.8538462,0.408529748 11.8538462,0.903479243 L11.8538462,1.9640853 C13.0769231,2.25476992 14,3.37822672 14,4.71380471 C14,6.19079685 12.8769231,7.41638608 11.4615385,7.53423119 C10.8016122,9.07179076 9.39222081,10.2015302 7.7,10.4244353 L7.7,12.7429854 L9.30769231,12.7429854 C9.64615384,12.7429854 9.92307691,13.0258137 9.92307691,13.3714927 C9.92307691,13.7171717 9.64615384,14 9.30769231,14 L4.69230769,14 C4.35384616,14 4.07692309,13.7171717 4.07692309,13.3714927 C4.07692309,13.0258137 4.35384616,12.7429854 4.69230769,12.7429854 L6.3,12.7429854 L6.3,10.398912 Z M1.23076924,4.71380471 C1.23076924,5.4365881 1.70769231,6.04938271 2.35384615,6.22222222 C2.33076923,6.04152636 2.31538462,5.86083052 2.31538462,5.67227833 L2.31538462,3.21324355 C1.6923077,3.40965207 1.23076924,4.00673401 1.23076924,4.71380471 Z M9.36153847,4.69023569 C9.66923076,4.37598204 9.56923077,4.0617284 9.14615384,3.98316498 L7.91538461,3.81032547 L7.36923077,2.62401796 C7.16153846,2.20763189 6.85384617,2.20763189 6.68461539,2.62401796 L6.13846153,3.77890012 L4.90769232,3.95173961 C4.4923077,4.0224467 4.39230769,4.33670034 4.70000001,4.65095399 L5.59230769,5.59371493 L5.38461539,6.92143658 C5.31538462,7.36924805 5.55384614,7.54994389 5.93076923,7.33782268 L7.03076924,6.70931537 L8.13076923,7.37710438 C8.50769229,7.58922559 8.74615384,7.4163861 8.67692307,6.9607183 L8.46923076,5.63299663 L9.36153847,4.69023569 Z M11.8230769,6.16722783 C12.3769231,5.93153761 12.7692308,5.36588104 12.7692308,4.72166106 C12.7692308,4.07744108 12.3923077,3.52749721 11.8538462,3.28395062 L11.8538462,5.68013468 C11.8538462,5.84511785 11.8384615,6.00224466 11.8230769,6.16722783 Z" id="合并形状"></path>
            </g>
        </g>
    </g>
</svg>