<?xml version="1.0" standalone="no"?><!DOCTYPE svg PUBLIC "-//W3C//DTD SVG 1.1//EN" "http://www.w3.org/Graphics/SVG/1.1/DTD/svg11.dtd"><svg t="1577517704476" class="icon" viewBox="0 0 1024 1024" version="1.1" xmlns="http://www.w3.org/2000/svg" p-id="8696" xmlns:xlink="http://www.w3.org/1999/xlink" width="16" height="16"><defs><style type="text/css"></style></defs><path d="M18.285714 18.285714m146.285715 0l694.857142 0q146.285714 0 146.285715 146.285715l0 694.857142q0 146.285714-146.285715 146.285715l-694.857142 0q-146.285714 0-146.285715-146.285715l0-694.857142q0-146.285714 146.285715-146.285715Z" fill="#5286FF" p-id="8697" data-spm-anchor-id="a313x.7781069.0.i33" class="selected"></path><path d="M822.491429 265.362286a28.233143 28.233143 0 0 0-43.154286 1.316571L426.422857 684.324571 244.516571 471.332571a28.306286 28.306286 0 0 0-43.154285-1.097142 37.083429 37.083429 0 0 0-0.950857 48.274285l204.068571 238.957715a28.964571 28.964571 0 0 0 22.089143 10.532571h0.073143a29.110857 29.110857 0 0 0 22.089143-10.678857l374.930285-443.684572a37.156571 37.156571 0 0 0-1.170285-48.274285" fill="#ffffff" p-id="8698" data-spm-anchor-id="a313x.7781069.0.i34" class=""></path></svg>