<?xml version="1.0" encoding="UTF-8"?>
<svg width="14px" height="14px" viewBox="0 0 14 14" version="1.1" xmlns="http://www.w3.org/2000/svg" xmlns:xlink="http://www.w3.org/1999/xlink">
    <!-- Generator: Sketch 53.1 (72631) - https://sketchapp.com -->
    <title>lifangtilitiduomiantifangkuai2</title>
    <desc>Created with Sketch.</desc>
    <g id="Page-1" stroke="none" stroke-width="1" fill="none" fill-rule="evenodd">
        <g id="个人中心-默认" transform="translate(-450.000000, -2348.000000)" fill="#5286FF" fill-rule="nonzero">
            <g id="lifangtilitiduomiantifangkuai2" transform="translate(450.000000, 2348.000000)">
                <path d="M13.0307692,4.75002346 L8.24923077,7.25495925 C7.80769231,7.48362559 7.53846154,7.94095826 7.53846154,8.45026056 L7.53846154,13.2938293 C7.53846154,13.8135256 8.06615385,14.1565251 8.50769231,13.9174648 L13.2892308,11.412529 C13.72,11.1838627 14,10.72653 14,10.2172277 L14,5.38405285 C14,4.85396271 13.4723077,4.52135713 13.0307692,4.75002346 Z M5.75076923,7.24456533 L0.969230769,4.75002346 C0.527692308,4.52135713 0,4.85396271 0,5.37365893 L0,10.2380156 C0,10.7473179 0.269230769,11.2046505 0.710769231,11.4333169 L5.49230769,13.9278587 C5.93384615,14.1565251 6.46153846,13.8135256 6.46153846,13.2938293 L6.46153846,8.43986663 C6.46153846,7.93056434 6.19230769,7.47323166 5.75076923,7.24456533 Z M12.5892308,3.6170857 C12.8153846,3.50275253 12.9230769,3.30526797 12.9015385,3.11817733 C12.9230769,2.92069276 12.8153846,2.73360212 12.5892308,2.61926896 L7.72153846,0.166302791 C7.50615385,0.0519696221 7.24769231,0 6.98923077,0 C6.73076923,0 6.47230769,0.0519696221 6.25692308,0.166302791 L1.38923077,2.60887503 C1.16307692,2.7232082 1.06615385,2.92069276 1.07692308,3.1077834 C1.06615385,3.30526797 1.16307692,3.50275253 1.38923077,3.6170857 L6.25692308,6.05965794 C6.47230769,6.17399111 6.73076923,6.22596073 6.98923077,6.22596073 C7.24769231,6.22596073 7.50615385,6.17399111 7.72153846,6.05965794 L12.5892308,3.6170857 Z" id="形状"></path>
            </g>
        </g>
    </g>
</svg>