<?xml version="1.0" encoding="UTF-8"?>
<svg width="14px" height="14px" viewBox="0 0 14 14" version="1.1" xmlns="http://www.w3.org/2000/svg" xmlns:xlink="http://www.w3.org/1999/xlink">
    <!-- Generator: Sketch 53.1 (72631) - https://sketchapp.com -->
    <title>形状</title>
    <desc>Created with Sketch.</desc>
    <g id="Page-1" stroke="none" stroke-width="1" fill="none" fill-rule="evenodd">
        <g id="招聘职位详情页" transform="translate(-869.000000, -270.000000)" fill="#5286FF" fill-rule="nonzero">
            <g id="collection" transform="translate(869.000000, 270.000000)">
                <path d="M7.80010538,0.479485491 L7.83156829,0.540618462 L9.49264862,4.05471061 L13.2052721,4.61797723 C13.5426125,4.6690674 13.8259814,4.90939246 13.9433005,5.24389874 C14.0606195,5.57840503 13.9929925,5.95321479 13.7671674,6.22008281 L13.7191663,6.27236206 L11.0335245,9.00479532 L11.6676231,12.8654482 C11.7254124,13.2169215 11.5939596,13.5731856 11.3253462,13.7930885 C11.0567329,14.0129915 10.6943131,14.0610411 10.3816775,13.9182002 L10.3219787,13.8882662 L6.99981802,12.0652386 L3.67765737,13.8886878 C3.37511056,14.0548678 3.0096499,14.0337253 2.72649765,13.8336615 C2.4433454,13.6335978 2.28836426,13.2870175 2.32313873,12.9316405 L2.33201289,12.8658698 L2.96611155,9.00521692 L0.280469767,6.27278366 C0.0355714812,6.02348098 -0.0583135012,5.65361081 0.0361365264,5.31020609 C0.130586554,4.96680138 0.398066012,4.70551068 0.732244905,4.63020381 L0.794363979,4.61839883 L4.50698742,4.05513223 L6.16806775,0.541040062 C6.25824368,0.350003152 6.40609599,0.195318374 6.58878332,0.100882628 C7.02516765,-0.124877073 7.55397094,0.0405862594 7.80010538,0.479485491 Z" id="形状"></path>
            </g>
        </g>
    </g>
</svg>