<?xml version="1.0" encoding="UTF-8"?>
<svg width="14px" height="14px" viewBox="0 0 14 14" version="1.1" xmlns="http://www.w3.org/2000/svg" xmlns:xlink="http://www.w3.org/1999/xlink">
    <!-- Generator: Sketch 53.1 (72631) - https://sketchapp.com -->
    <title>set</title>
    <desc>Created with Sketch.</desc>
    <g id="Page-1" stroke="none" stroke-width="1" fill="none" fill-rule="evenodd">
        <g id="个人中心-默认" transform="translate(-376.000000, -269.000000)" fill="#595959" fill-rule="nonzero">
            <g id="个人标签" transform="translate(130.000000, 249.000000)">
                <g id="set" transform="translate(246.000000, 20.000000)">
                    <path d="M5.89631385,0 L8.15425326,0.00330119263 C8.85531313,0.00443767975 9.42327789,0.557350026 9.42421167,1.23960267 L9.42505972,1.59778346 C9.86245709,1.77441939 10.2767951,2.00089437 10.6593999,2.27246734 L10.9617306,2.10328057 C11.569351,1.76299028 12.3453426,1.96525581 12.6968457,2.55554572 L13.8285716,4.45704011 C14.165562,5.0233055 13.9914942,5.74699878 13.4312591,6.10888082 L13.3621428,6.1501459 L13.0585401,6.32057062 C13.1106953,6.78934182 13.1043349,7.2655407 13.0360667,7.73885106 L13.2506239,7.85975772 C13.8339916,8.18744765 14.0537545,8.90088139 13.7518229,9.48683938 L13.7166287,9.55080025 L12.6565632,11.3375777 C12.3198399,11.9052952 11.586739,12.1191625 10.984628,11.8253309 L10.9184799,11.7906682 L10.6254778,11.6256079 C10.2570271,11.8835931 9.85937542,12.099584 9.44032467,12.269343 L9.44032467,12.7603973 C9.44119775,13.4145963 8.9188756,13.9565281 8.24796303,13.9975241 L8.16697405,14 L5.90903464,13.9966988 C5.20814,13.9955629 4.6402434,13.4429015 4.63907621,12.76081 L4.63780413,12.1686562 C4.28787707,12.0087546 3.95460563,11.8163948 3.64261469,11.5942465 L3.10155729,11.8971321 C2.49382608,12.2373529 1.71780032,12.0348939 1.36644216,11.4444543 L0.234716281,9.54337254 C-0.102545716,8.97701429 0.0715492436,8.25302758 0.632028806,7.89111916 L0.701145087,7.8498541 L1.25153106,7.54160403 C1.20912844,7.14958587 1.20700831,6.75302856 1.24771482,6.35729654 L0.636693101,6.01355851 C0.0531690164,5.68600663 -0.166789954,4.97254008 0.135070136,4.38647684 L0.170688335,4.32251598 L1.23075378,2.53573849 C1.5674771,1.96802105 2.30057797,1.75415377 2.902689,2.04798537 L2.96841307,2.08264803 L3.50098996,2.38181979 C3.84807664,2.11844105 4.2242489,1.89353333 4.62253919,1.71126241 L4.62253919,1.24001531 C4.6214418,0.585657252 5.14382479,0.043481519 5.81490082,0.00247590415 L5.89588981,1.64928347e-15 L5.89631385,0 Z M5.89461773,1.23795207 L5.89588981,2.49653667 L5.16486869,2.83119639 C4.85193737,2.97438619 4.55639113,3.15100067 4.2841663,3.35773867 L3.60826857,3.87107613 L2.36459978,3.17204586 L2.33279782,3.15471453 L1.27273237,4.94149201 L2.59569405,5.68467592 L2.51343297,6.48067911 C2.48163101,6.78975448 2.48290308,7.1017184 2.51640117,7.41079376 L2.60375055,8.21216139 L1.33591228,8.92274588 L2.46721412,10.8238276 L3.72614786,10.1194329 L4.39398909,10.5952191 C4.63986277,10.7704895 4.90256671,10.922225 5.17843751,11.0483096 L5.9086106,11.382144 L5.91115475,12.7587467 L8.16867014,12.7620479 L8.16739807,11.443629 L8.95184651,11.1258879 C9.2809114,10.9927029 9.59319713,10.8232344 9.88258396,10.6208035 L10.5500012,10.1540956 L11.5549432,10.7186017 L12.6141606,8.93141155 L11.6575576,8.39331506 L11.7762849,7.56760103 C11.8292882,7.19827866 11.8352245,6.82441714 11.794094,6.45344416 L11.7050485,5.65166386 L12.7277996,5.0772541 L11.5960738,3.17617236 L10.5784109,3.74686826 L9.91014567,3.27273262 C9.6085996,3.05871452 9.28209109,2.88017108 8.9374296,2.74082589 L8.15467728,2.42473545 L8.15213312,1.24125327 L5.89461773,1.23795207 L5.89461773,1.23795207 Z M8.42647807,4.79169981 C9.64298563,5.47638444 10.0600082,6.99041838 9.3584876,8.17543549 C9.02174875,8.74430679 8.46636209,9.15949943 7.81476014,9.32948602 C7.16315819,9.49947262 6.46884007,9.41029659 5.88486514,9.08161641 C4.66851146,8.39679057 4.2516878,6.8827899 4.95327961,5.69788073 C5.29001715,5.1291215 5.84532659,4.71400937 6.49682619,4.54402872 C7.14832579,4.37404808 7.84254126,4.46315073 8.42647807,4.79169981 L8.42647807,4.79169981 Z M6.05489963,6.31603148 C5.70377167,6.90923664 5.91245273,7.66710436 6.52132843,8.00996256 C6.81300598,8.17425994 7.15987039,8.21886698 7.48538959,8.1339416 C7.81090879,8.04901621 8.08833018,7.84153794 8.25644356,7.55728475 C8.59302118,6.98857623 8.41651643,6.26316611 7.85361869,5.90173018 L7.79001476,5.86335366 L7.72429071,5.82910365 C7.12318587,5.53494504 6.39065257,5.74861028 6.05489963,6.31603148 L6.05489963,6.31603148 Z" id="形状"></path>
                </g>
            </g>
        </g>
    </g>
</svg>