<?xml version="1.0" standalone="no"?><!DOCTYPE svg PUBLIC "-//W3C//DTD SVG 1.1//EN" "http://www.w3.org/Graphics/SVG/1.1/DTD/svg11.dtd"><svg t="1578361277876" class="icon" viewBox="0 0 1024 1024" version="1.1" xmlns="http://www.w3.org/2000/svg" p-id="2305" width="64" height="64" xmlns:xlink="http://www.w3.org/1999/xlink"><defs><style type="text/css"></style></defs><path d="M670.203 709.754c0 19.775-14.831 34.607-34.607 34.607H388.404c-19.776 0-34.607-14.832-34.607-34.607V346.38h316.406v363.373z m-247.192-422.7c0-4.943 2.472-7.415 7.416-7.415h165.618c4.944 0 7.416 2.472 7.416 7.416v19.775H425.483c-2.472 0-2.472-19.775-2.472-19.775z m348.541 19.776H640.54v-19.775c0-27.191-22.247-46.967-46.967-46.967H427.955c-27.192 0-46.967 22.248-46.967 46.967v19.775H249.976c-12.36 0-19.775 9.888-19.775 19.776s9.887 19.775 19.775 19.775h61.798v363.373c0 42.023 34.607 76.63 76.63 76.63h247.192c42.023 0 76.63-34.607 76.63-76.63V346.38h61.798c12.36 0 19.775-9.888 19.775-19.775s-9.887-19.776-22.247-19.776zM512 682.563c12.36 0 19.775-9.888 19.775-19.776v-220c0-12.36-9.887-19.776-19.775-19.776s-19.775 9.887-19.775 19.775v220.001c0 9.888 7.415 19.776 19.775 19.776m-96.405 0c12.36 0 19.775-9.888 19.775-19.776v-220c0-12.36-9.887-19.776-19.775-19.776s-19.775 9.887-19.775 19.775v220.001c0 9.888 9.887 19.776 19.775 19.776m192.81 0c12.36 0 19.775-9.888 19.775-19.776v-220c0-12.36-9.887-19.776-19.775-19.776s-19.775 9.887-19.775 19.775v220.001c0 9.888 7.415 19.776 19.775 19.776" p-id="2306" fill="#4B85FF"></path></svg>