<?xml version="1.0" encoding="UTF-8"?>
<svg width="18px" height="16px" viewBox="0 0 18 16" version="1.1" xmlns="http://www.w3.org/2000/svg" xmlns:xlink="http://www.w3.org/1999/xlink">
    <!-- Generator: Sketch 53.1 (72631) - https://sketchapp.com -->
    <title>zhiwei-2复制</title>
    <desc>Created with Sketch.</desc>
    <g id="Page-1" stroke="none" stroke-width="1" fill="none" fill-rule="evenodd">
        <g id="双选会详情" transform="translate(-671.000000, -312.000000)" fill="#3A71FB" fill-rule="nonzero">
            <g id="zhiwei-2复制" transform="translate(671.000000, 312.000000)">
                <path d="M17.3357461,15.0984167 L12.2423912,10.3050208 C13.8704275,9.30325 14.9505906,7.57385417 14.9505906,5.6085 C14.9505906,2.516 12.2815044,0 9.00026383,0 C5.71902323,0 3.04993704,2.51602083 3.04993704,5.60852083 C3.04993704,7.5739375 4.13023296,9.30339583 5.7584021,10.3051458 L0.664781588,15.0984167 C0.503949803,15.2492258 0.455769216,15.4765012 0.542793414,15.6738542 C0.629204227,15.8711803 0.833551127,15.9999602 1.060319,16 L16.9396995,16 C17.1664711,15.9999715 17.370824,15.8711878 17.4572251,15.6738542 C17.5441162,15.4765716 17.4961694,15.249451 17.3357461,15.0984167 L17.3357461,15.0984167 Z M4.17029803,5.60852083 C4.17029803,3.09816667 6.33717633,1.05602083 9.00026383,1.05602083 C11.6633513,1.05602083 13.8302296,3.09816667 13.8302296,5.60852083 C13.8302296,8.11860417 11.6633513,10.1607708 9.00026383,10.1607708 C6.33717633,10.1607708 4.17029803,8.11860417 4.17029803,5.60852083 Z M10.6345866,10.9965833 L9.00026383,13.0717292 L7.36594105,10.9965833 C7.88605648,11.1369375 8.43297787,11.21675 9.00026383,11.21675 C9.56754979,11.21675 10.1144712,11.1369375 10.6345866,10.9965833 Z M2.4142527,14.944 L6.24228188,11.3413333 L8.55058324,14.2723958 C8.65615399,14.4064678 8.8229574,14.4855548 9.00026383,14.4856042 C9.17757027,14.4855548 9.34437367,14.4064678 9.44994442,14.2723958 L11.7578252,11.34175 L15.5857216,14.944 L2.4142527,14.944 Z" id="形状"></path>
            </g>
        </g>
    </g>
</svg>