<?xml version="1.0" encoding="UTF-8"?>
<svg width="12px" height="12px" viewBox="0 0 12 12" version="1.1" xmlns="http://www.w3.org/2000/svg" xmlns:xlink="http://www.w3.org/1999/xlink">
    <!-- Generator: Sketch 53.1 (72631) - https://sketchapp.com -->
    <title>nan</title>
    <desc>Created with Sketch.</desc>
    <g id="Page-1" stroke="none" stroke-width="1" fill="none" fill-rule="evenodd">
        <g id="个人中心--鼠标悬浮" transform="translate(-308.000000, -396.000000)" fill="#5286FF" fill-rule="nonzero">
            <g id="nan" transform="translate(308.000000, 396.000000)">
                <path d="M11.9999698,0.792252759 C12.0012324,0.65777897 11.953486,0.525543416 11.8669669,0.423883276 C11.7743386,0.315204468 11.6413492,0.246523773 11.500513,0.23466941 C11.4985716,0.23444835 11.4965896,0.234268738 11.4946482,0.234061494 L8.3389064,0.00146452983 C8.03900151,-0.0205862427 7.77801868,0.208971141 7.75625653,0.514324602 C7.73450797,0.819733327 7.96015276,1.08521302 8.26024772,1.10734669 L10.224692,1.25216887 L7.89018265,3.61893797 C7.05245546,2.84968931 5.94283044,2.3813729 4.72567082,2.3813729 C2.11572035,2.3813729 0,4.53457005 0,7.19067954 C0,9.84678904 2.11573392,12 4.72567082,12 C7.33553983,12 9.45126018,9.84678904 9.45126018,7.19067954 C9.45126018,6.17335969 9.14092901,5.22992927 8.61134728,4.45290205 L10.8101928,2.22357724 L10.6862449,4.0221521 C10.6651616,4.32756082 10.891458,4.5925155 11.1915666,4.61395835 C11.2045315,4.61482878 11.2174286,4.61532616 11.2302714,4.61532616 C11.5137495,4.61532616 11.7529294,4.39193084 11.7730761,4.09970284 L11.9987616,0.825826304 C11.9995083,0.814662755 11.9998341,0.803402492 11.9999698,0.792252759 C12.0000377,0.788176959 11.9999698,0.794145589 11.9999698,0.792252759 L11.9999698,0.792252759 Z M8.07651168,8.63077736 C7.89338656,9.07128161 7.63104614,9.46713166 7.2967671,9.80737121 C6.96248807,10.1475693 6.57355252,10.4145412 6.14065824,10.6009227 C5.69307487,10.7935215 5.21700928,10.8912164 4.72560294,10.8912164 C4.23423733,10.8912164 3.75821247,10.7935354 3.31061551,10.6009227 C2.87770767,10.414555 2.48877211,10.1475693 2.1544795,9.80737121 C1.82014616,9.46713166 1.55781932,9.07128161 1.3747485,8.63077736 C1.18543277,8.17526864 1.08947841,7.69069048 1.08947841,7.19067954 C1.08947841,6.69064097 1.18543277,6.20614571 1.3747485,5.75062317 C1.55781932,5.31006366 1.82014616,4.91422743 2.1544795,4.57397406 C2.48877211,4.23376214 2.87770767,3.96679029 3.31061551,3.78049166 C3.75821247,3.58782372 4.23423733,3.49015648 4.72560294,3.49015648 C5.21700928,3.49015648 5.69307487,3.58780991 6.14065824,3.78049166 C6.57355252,3.96679029 6.96248807,4.23377596 7.2967671,4.57397406 C7.63104614,4.91422743 7.89337298,5.31006366 8.07651168,5.75062317 C8.26582741,6.20615953 8.36179535,6.69064097 8.36179535,7.19067954 C8.36179535,7.69069048 8.26582741,8.17528246 8.07651168,8.63077736 L8.07651168,8.63077736 Z" id="形状"></path>
            </g>
        </g>
    </g>
</svg>