<?xml version="1.0" encoding="UTF-8"?>
<svg width="25px" height="20px" viewBox="0 0 25 20" version="1.1" xmlns="http://www.w3.org/2000/svg" xmlns:xlink="http://www.w3.org/1999/xlink">
    <!-- Generator: Sketch 53.1 (72631) - https://sketchapp.com -->
    <title>职位图标复制</title>
    <desc>Created with Sketch.</desc>
    <g id="Page-1" stroke="none" stroke-width="1" fill="none" fill-rule="evenodd">
        <g id="双选会详情" transform="translate(-545.000000, -310.000000)" fill="#3A71FB" fill-rule="nonzero">
            <g id="职位图标复制" transform="translate(545.000000, 310.000000)">
                <path d="M8.49999999,12 C6.56382979,12 5,10.4361702 5,8.50000001 C5,6.5638298 6.56382979,5 8.49999999,5 C10.4361702,5 12,6.5638298 12,8.50000001 C12,10.4361702 10.4361702,12 8.49999999,12 L8.49999999,12 Z M8.49999999,5.81914894 C7.0106383,5.81914894 5.74468085,7.01063831 5.74468085,8.57446811 C5.74468085,10.0638298 6.9361702,11.3297873 8.49999999,11.3297873 C9.9893617,11.3297873 11.2553192,10.1382979 11.2553192,8.57446811 C11.2553192,7.01063831 10.0638298,5.81914894 8.49999999,5.81914894 L8.49999999,5.81914894 Z" id="形状"></path>
                <path d="M13.5564516,17 C13.2903226,17 13.1129032,16.8507463 13.1129032,16.6268656 C13.1129032,14.4626866 11.0725807,12.7462687 8.49999999,12.7462687 C5.92741936,12.7462687 3.88709677,14.4626866 3.88709677,16.6268656 C3.88709677,16.8507463 3.70967743,17 3.44354839,17 C3.17741936,17 3,16.8507463 3,16.6268656 C3,14.0895522 5.48387096,12 8.49999999,12 C11.5161291,12 14,14.0895522 14,16.6268656 C14,16.8507463 13.733871,17 13.5564516,17" id="路径"></path>
                <path d="M21.9579607,19.9166666 C21.7044574,19.9166666 21.5354553,19.75 21.5354553,19.5 C21.5354553,19.25 21.7044574,19.0833333 21.9579607,19.0833333 C23.140976,19.0833333 24.1549891,18.1666666 24.1549891,16.9166667 L24.1549891,3 C24.1549891,1.83333333 23.2254771,0.833333331 21.9579607,0.833333331 L3.0420393,0.833333331 C1.85902402,0.833333331 0.845010919,1.75000001 0.845010919,3 L0.845010919,17 C0.845010919,18.1666666 1.77452293,19.1666667 3.0420393,19.1666667 L15.1256953,19.1666667 C15.3791986,19.1666667 15.5482008,19.3333333 15.5482008,19.5833334 C15.5482008,19.8333334 15.3791986,20 15.1256953,20 L3.0420393,20 C1.35201746,20 0,18.6666667 0,17 L0,3 C0,1.33333334 1.35201746,0 3.0420393,0 L21.9579607,0 C23.6479825,0 25,1.33333334 25,3 L25,17 C25,18.5192796 23.7551616,19.8083775 22.1613436,19.910192 C22.0941472,19.9144845 23.8131766,19.9166666 23.7448067,19.9166666" id="路径"></path>
                <path d="M19.0689655,7 L14.9310345,7 C14.6724138,7 14.5,6.8 14.5,6.49999998 C14.5,6.19999998 14.6724138,6 14.9310345,6 L19.0689655,6 C19.3275862,6 19.5,6.19999998 19.5,6.49999998 C19.5,6.8 19.3275862,7 19.0689655,7" id="路径"></path>
                <path d="M21.0930232,11 L14.9069768,11 C14.6627907,11 14.5,10.8 14.5,10.5 C14.5,10.2000001 14.6627907,10 14.9069768,10 L21.0930232,10 C21.3372093,10 21.5,10.2000001 21.5,10.5 C21.5,10.8 21.255814,11 21.0930232,11" id="路径"></path>
                <path d="M14.9069768,14 C14.6627907,14 14.5,13.8 14.5,13.5000001 C14.5,13.2000001 14.6627907,13 14.9069768,13 L21.0930232,13 C21.3372093,13 21.5,13.2000001 21.5,13.5000001 C21.5,13.8 21.255814,14 21.0930232,14 L14.9069768,14 Z" id="路径"></path>
            </g>
        </g>
    </g>
</svg>