<?xml version="1.0" standalone="no"?><!DOCTYPE svg PUBLIC "-//W3C//DTD SVG 1.1//EN" "http://www.w3.org/Graphics/SVG/1.1/DTD/svg11.dtd"><svg t="1577521768778" class="icon" viewBox="0 0 1024 1024" version="1.1" xmlns="http://www.w3.org/2000/svg" p-id="16219" data-spm-anchor-id="a313x.7781069.0.i40" width="16" height="16" xmlns:xlink="http://www.w3.org/1999/xlink"><defs><style type="text/css"></style></defs><path d="M594.721871 1024a85.858462 85.858462 0 0 1-60.652308-25.206154L44.91264 509.636923A166.203077 166.203077 0 0 1 0.014178 402.510769v-315.076923A85.858462 85.858462 0 0 1 85.87264 0h315.076923a166.203077 166.203077 0 0 1 108.701539 44.898462l489.156923 489.156923a85.070769 85.070769 0 0 1 0 121.304615l-343.433847 343.433846a85.858462 85.858462 0 0 1-60.652307 25.206154zM85.87264 78.769231a7.089231 7.089231 0 0 0-7.089231 7.089231v315.076923a92.947692 92.947692 0 0 0 21.267693 51.2L589.208025 945.230769a7.089231 7.089231 0 0 0 10.24 0L945.244948 599.433846a7.089231 7.089231 0 0 0 0-10.24L453.724948 100.036923A92.947692 92.947692 0 0 0 402.524948 78.769231zM236.321871 345.009231a121.304615 121.304615 0 1 1 122.88-121.304616A121.304615 121.304615 0 0 1 236.321871 345.009231zM236.321871 181.169231a42.535385 42.535385 0 1 0 42.535384 42.535384A42.535385 42.535385 0 0 0 236.321871 181.169231z" fill="#5286FF" p-id="16220"></path></svg>