<?xml version="1.0" encoding="UTF-8"?>
<svg width="14px" height="10px" viewBox="0 0 14 10" version="1.1" xmlns="http://www.w3.org/2000/svg" xmlns:xlink="http://www.w3.org/1999/xlink">
    <!-- Generator: Sketch 53.1 (72631) - https://sketchapp.com -->
    <title>browse-4</title>
    <desc>Created with Sketch.</desc>
    <g id="Page-1" stroke="none" stroke-width="1" fill="none" fill-rule="evenodd">
        <g id="宣讲会列表" transform="translate(-943.000000, -410.000000)" fill="#666666" fill-rule="nonzero">
            <g id="分组-3" transform="translate(130.000000, 385.000000)">
                <g id="browse-4" transform="translate(813.000000, 25.000000)">
                    <path d="M7,0 C9.48409594,0 11.7489006,1.45153846 13.7940124,4.35461539 C14.051275,4.71986949 14.0688844,5.19353559 13.8393969,5.57538462 L13.7940124,5.64538461 L13.6799488,5.80500001 C11.6649595,8.60153846 9.43790821,10 7,10 C4.51590406,10 2.25109938,8.54846154 0.205987564,5.64538461 C-0.0512749983,5.28013051 -0.0688844449,4.80646441 0.160603124,4.42461538 L0.205987564,4.35461539 L0.320051151,4.19499999 C2.33504053,1.39846154 4.56209179,0 7,0 Z M7,1.15384616 C5.00870692,1.15384616 3.121035,2.33923077 1.31529606,4.84538462 L1.20484716,5 L1.31569768,5.15499999 C3.12304315,7.66192308 5.01031346,8.84615384 7,8.84615384 C8.99129308,8.84615384 10.878965,7.66076923 12.6847039,5.15461538 L12.7951528,5 L12.6843023,4.84500001 C10.8769569,2.33807692 8.98968654,1.15384616 7,1.15384616 Z M7,2.55076922 C7.95934413,2.53948734 8.85089919,3.02314205 9.33400437,3.81693017 C9.81710955,4.61071829 9.81710955,5.591974 9.33400437,6.38576213 C8.85089919,7.17955025 7.95934413,7.66320495 7,7.65192307 C5.54178743,7.6347745 4.36908207,6.49788034 4.36908207,5.10134615 C4.36908207,3.70481195 5.54178743,2.56791779 7,2.55076922 L7,2.55076922 Z M7,3.70461538 C6.47314953,3.69624271 5.98253466,3.96061173 5.71655316,4.39620387 C5.45057166,4.831796 5.45057166,5.3708963 5.71655316,5.80648843 C5.98253466,6.24208056 6.47314953,6.50644959 7,6.49807692 C7.7960873,6.48542555 8.43452427,5.86380863 8.43452427,5.10134615 C8.43452427,4.33888366 7.7960873,3.71726674 7,3.70461538 L7,3.70461538 Z" id="形状"></path>
                </g>
            </g>
        </g>
    </g>
</svg>