<?xml version="1.0" encoding="UTF-8"?>
<svg width="14px" height="12px" viewBox="0 0 14 12" version="1.1" xmlns="http://www.w3.org/2000/svg" xmlns:xlink="http://www.w3.org/1999/xlink">
    <!-- Generator: Sketch 53.1 (72631) - https://sketchapp.com -->
    <title>zhaopian复制</title>
    <desc>Created with Sketch.</desc>
    <g id="Page-1" stroke="none" stroke-width="1" fill="none" fill-rule="evenodd">
        <g id="个人中心-默认" transform="translate(-450.000000, -2934.000000)" fill="#4E7EF6" fill-rule="nonzero">
            <g id="zhaopian复制" transform="translate(450.000000, 2934.000000)">
                <path d="M12.6875,0 L1.3125,0 C0.588,0 0,0.576 0,1.33344 L0,10.66656 C0,11.424 0.588,12 1.3125,12 L12.6875,12 C13.412,12 14,11.424 14,10.66656 L14,1.33344 C14,0.576 13.412,0 12.6875,0 Z M1.3125,0.96 L12.6875,0.96 C12.929,0.96 13.125,1.16304 13.125,1.44 L13.125,6.72 C12.4201875,6.15552 11.1978125,5.3472 9.625,5.28 C8.3794375,5.3472 7.046375,6.43296 5.6875,7.68 C4.7700625,8.28768 3.7485,9.12 3.0625,9.12 C2.0269375,9.12 1.1668125,8.35392 0.875,8.16 L0.875,1.44 C0.875,1.16304 1.071,0.96 1.3125,0.96 Z M3.9375,6.24 C4.90399831,6.24 5.6875,5.38038672 5.6875,4.32 C5.6875,3.25961328 4.90399831,2.4 3.9375,2.4 C2.97100169,2.4 2.1875,3.25961328 2.1875,4.32 C2.1875,5.38038672 2.97100169,6.24 3.9375,6.24 Z M3.9375,3.36 C4.42074916,3.36 4.8125,3.78980664 4.8125,4.32 C4.8125,4.85019336 4.42074916,5.28 3.9375,5.28 C3.45425084,5.28 3.0625,4.85019336 3.0625,4.32 C3.0625,3.78980664 3.45425084,3.36 3.9375,3.36 Z" id="形状"></path>
            </g>
        </g>
    </g>
</svg>