<?xml version="1.0" standalone="no"?><!DOCTYPE svg PUBLIC "-//W3C//DTD SVG 1.1//EN" "http://www.w3.org/Graphics/SVG/1.1/DTD/svg11.dtd"><svg t="1577514955993" class="icon" viewBox="0 0 1024 1024" version="1.1" xmlns="http://www.w3.org/2000/svg" p-id="1716" xmlns:xlink="http://www.w3.org/1999/xlink" width="16" height="16"><defs><style type="text/css"></style></defs><path d="M983.3326 313.051205a509.951636 509.951636 0 0 0-109.714207-162.742741A510.171064 510.171064 0 0 0 511.85408 0.365714a510.31735 510.31735 0 0 0-361.837456 149.94275A510.171064 510.171064 0 0 0 0.000731 512.219063a509.951636 509.951636 0 0 0 149.94275 361.837456A510.024779 510.024779 0 0 0 511.780937 1023.999269a510.024779 510.024779 0 0 0 361.910599-149.94275 510.024779 510.024779 0 0 0 149.94275-361.837456c0-69.119951-13.604562-136.11876-40.228543-199.241001z m-65.609096 370.614592a439.368829 439.368829 0 0 1-94.354218 140.068472 439.441972 439.441972 0 0 1-311.588349 129.023908 438.929972 438.929972 0 0 1-311.515206-129.023908 439.368829 439.368829 0 0 1-129.023908-311.588349 439.149401 439.149401 0 0 1 129.023908-311.515206A439.368829 439.368829 0 0 1 511.780937 71.679949a439.076258 439.076258 0 0 1 311.515206 129.023908 439.076258 439.076258 0 0 1 129.023908 311.515206c0 59.4651-11.629706 117.174773-34.596547 171.446734z" fill="#5286FF" p-id="1717"></path><path d="M555.154621 590.847578c-2.925712 32.182834-23.332555 47.177109-43.519969 47.177109-14.921132 0 0 0 0 0-19.090272-3.65714-33.938261-11.775992-40.521114-44.251397l-26.33141-303.615783c0-30.573692 37.083402-57.563387 68.607951-57.563387 31.451406 0 65.389668 28.233123 65.389668 58.733672L555.154621 590.847578z m-43.373684 86.893652a57.051388 57.051388 0 1 0 0 114.102776 57.051388 57.051388 0 0 0 0-114.102776z" fill="#5286FF" p-id="1718"></path></svg>