<?xml version="1.0" encoding="UTF-8"?>
<svg width="14px" height="14px" viewBox="0 0 14 14" version="1.1" xmlns="http://www.w3.org/2000/svg" xmlns:xlink="http://www.w3.org/1999/xlink">
    <!-- Generator: Sketch 53.1 (72631) - https://sketchapp.com -->
    <title>shehuishijian</title>
    <desc>Created with Sketch.</desc>
    <g id="Page-1" stroke="none" stroke-width="1" fill="none" fill-rule="evenodd">
        <g id="个人中心-默认" transform="translate(-450.000000, -1652.000000)" fill="#5286FF" fill-rule="nonzero">
            <g id="shehuishijian" transform="translate(450.000000, 1652.000000)">
                <path d="M5.43287237,8.69805186 L4.64747687,1.99465095 C4.57969611,1.41454895 4.99554026,0.886011574 5.57259272,0.817872608 L12.4092905,0.00757139968 C12.7555219,-0.0329436608 13.0522918,0.0904431142 13.2226596,0.346424632 C13.3930275,0.604247744 13.3930275,0.926526634 13.2226596,1.23223118 L11.8780358,3.65761003 L13.8784843,5.8435817 L13.8583333,5.84542329 C14.0048863,6.07193931 14.0396927,6.32423764 13.9535928,6.55996163 C13.8473418,6.84909183 13.5853783,7.03877598 13.2373149,7.08113263 L6.49770857,7.88038428 L6.59357296,8.69805186 L8.73081001,8.69805186 L11.181909,8.69805186 C11.4072343,8.69805186 11.6124085,8.84353776 11.7021722,9.06637059 L13.3362382,13.1473421 C13.4113466,13.3333431 13.3948594,13.546968 13.2941042,13.7200778 C13.1970129,13.8895044 13.0138216,13.9981584 12.817807,14 L0.567807564,14 C0.366297181,13.9963168 0.181274011,13.8839796 0.084182644,13.7071866 C-0.0165725477,13.5303936 -0.0275640232,13.3130856 0.0548720428,13.1270846 L1.86296976,9.04611306 C1.94906965,8.83801298 2.14874812,8.70173505 2.37407336,8.69805186 L3.4274231,8.69805186 L5.43287237,8.69805186 Z M6.34199601,12.0755346 C6.36397896,12.0755346 6.38779382,12.073693 6.40611295,12.0718514 C6.5599936,12.0534355 6.69738705,11.9760886 6.7926465,11.8545434 C6.88973787,11.7329982 6.93187185,11.5819875 6.91355273,11.4272937 C6.7717582,10.2178686 6.6654123,9.3107998 6.59451504,8.70608727 C5.76860737,8.70787846 6.12339315,8.69241976 5.43402369,8.70787846 C5.50837562,9.34247694 5.61990351,10.2943746 5.76860737,11.5635716 C5.80341371,11.8582266 6.05438573,12.0755346 6.34199601,12.0755346 Z" id="合并形状"></path>
            </g>
        </g>
    </g>
</svg>