<?xml version="1.0" encoding="UTF-8"?>
<svg width="14px" height="14px" viewBox="0 0 14 14" version="1.1" xmlns="http://www.w3.org/2000/svg" xmlns:xlink="http://www.w3.org/1999/xlink">
    <!-- Generator: Sketch 53.1 (72631) - https://sketchapp.com -->
    <title>jibenxinxi</title>
    <desc>Created with Sketch.</desc>
    <g id="Page-1" stroke="none" stroke-width="1" fill="none" fill-rule="evenodd">
        <g id="个人中心-默认" transform="translate(-450.000000, -797.000000)" fill="#4E7EF6" fill-rule="nonzero">
            <g id="jibenxinxi" transform="translate(450.000000, 797.000000)">
                <path d="M5.80000001,8 C8.83249951,8.00227805 11.2919708,10.6853377 11.3,14 L0.3,14 C0.308029157,10.6853377 2.76750049,8.00227805 5.80000001,8 Z" id="路径"></path>
                <path d="M11.5268326,13.320714 C11.5144232,10.7068644 9.83113501,8.41409903 7.39283901,7.68990302 C9.06408973,6.90087113 9.97611271,5.01928843 9.58408802,3.1691658 C9.19206333,1.31904317 7.60185592,5.36434874e-16 5.76341629,0 C3.92497666,-5.36434874e-16 2.33476924,1.31904317 1.94274455,3.1691658 C1.55071986,5.01928843 2.46274284,6.90087113 4.13399357,7.68990302 C1.69746606,8.41334895 0.014571956,10.7033415 0,13.3152211 L0,14 L11.5244625,14 L11.5244625,13.322545 L11.5268326,13.320714 Z M5.76460132,8.1012586 C8.57523612,8.08872992 10.8662536,10.4201996 10.8880989,13.3152211 L0.640511257,13.3152211 C0.662356889,10.4199604 2.95373571,8.08839262 5.76460132,8.1012586 L5.76460132,8.1012586 Z M13.6911292,1.27666198 L10.9945827,1.27666198 L10.9945827,0.605310135 L13.6911292,0.605310135 L13.6911292,1.27666198 Z M13.7272727,2.77804882 L11.0307263,2.77804882 L11.0307263,2.10669699 L13.7243101,2.10669699 L13.7243101,2.77804882 L13.7272727,2.77804882 Z M13.7272727,4.28004599 L11.0307263,4.28004599 L11.0307263,3.60869415 L13.7243101,3.60869415 L13.7243101,4.28004599 L13.7272727,4.28004599 Z" id="形状"></path>
            </g>
        </g>
    </g>
</svg>