<?xml version="1.0" encoding="UTF-8"?>
<svg width="14px" height="14px" viewBox="0 0 14 14" version="1.1" xmlns="http://www.w3.org/2000/svg" xmlns:xlink="http://www.w3.org/1999/xlink">
    <!-- Generator: Sketch 53.1 (72631) - https://sketchapp.com -->
    <title>peixunxuanchuan</title>
    <desc>Created with Sketch.</desc>
    <g id="Page-1" stroke="none" stroke-width="1" fill="none" fill-rule="evenodd">
        <g id="个人中心-默认" transform="translate(-450.000000, -2174.000000)" fill="#5286FF" fill-rule="nonzero">
            <g id="peixunxuanchuan" transform="translate(450.000000, 2174.000000)">
                <path d="M2.13800199,3.84802523 L11.8619981,3.84802523 L11.8619981,9.15206673 L2.13800199,9.15206673 L2.13800199,3.84802523 L2.13800199,3.84802523 Z M13.4999796,1.99968457 L0.499947259,1.99968457 C0.223711416,1.99968457 0,2.22395141 0,2.50011385 L0,10.4999342 C0,10.7761698 0.216502466,10.9994715 0.49266519,10.9994715 L13.5000527,10.9994715 C13.7762155,10.9994715 14,10.7761552 14,10.4999342 L14,2.50009923 C14,2.22393679 13.7762155,1.99968457 13.4999796,1.99968457 L13.4999796,1.99968457 Z M13.0001055,9.99954883 L0.999894518,9.99954883 L0.999894518,2.99957805 L13.0001055,2.99957805 L13.0001055,9.99954883 L13.0001055,9.99954883 Z M1.49985638,14 L2.4996924,14 L3.37962296,11 L2.40125295,11 L1.49985638,14 Z M7.91974735,0 L6.0830046,0 L5,2 L9,2 L7.91974735,0 Z M10.6203039,11 L11.5003076,14 L12.5002021,14 L11.6005456,11 L10.6203039,11 Z M7.49991068,11 L7.49991068,13 L6.50000156,13 L6.50000156,11 L7.49991068,11 Z" id="形状"></path>
            </g>
        </g>
    </g>
</svg>