<?xml version="1.0" encoding="UTF-8"?>
<svg width="22px" height="22px" viewBox="0 0 22 22" version="1.1" xmlns="http://www.w3.org/2000/svg" xmlns:xlink="http://www.w3.org/1999/xlink">
    <!-- Generator: Sketch 53.1 (72631) - https://sketchapp.com -->
    <title>企业图标 (1)复制</title>
    <desc>Created with Sketch.</desc>
    <g id="Page-1" stroke="none" stroke-width="1" fill="none" fill-rule="evenodd">
        <g id="双选会详情" transform="translate(-430.000000, -309.000000)" fill="#3A71FB" fill-rule="nonzero">
            <g id="企业图标-(1)复制" transform="translate(430.000000, 309.000000)">
                <path d="M14.9402124,16.9997906 L19.3612941,16.9997906 C19.7187229,16.9848807 20,16.7195217 20,16.3972304 C20,16.0749391 19.7187229,15.8095801 19.3612941,15.7946703 L14.9402124,15.7946703 C14.7624836,15.7943264 14.5919242,15.8577678 14.4662506,15.9709655 C14.3405771,16.0841632 14.2701436,16.2377909 14.2705254,16.3978763 C14.266138,16.5589186 14.3353324,16.7145235 14.4619304,16.8283098 C14.5885284,16.942096 14.761431,17.0040876 14.9402124,16.9997906 L14.9402124,16.9997906 Z M14.9402124,13.6634286 L19.3612941,13.6634286 C19.7187229,13.6485187 20,13.3831597 20,13.0608684 C20,12.7385771 19.7187229,12.4732181 19.3612941,12.4583082 L14.9402124,12.4583082 C14.7624836,12.4579643 14.5919242,12.5214058 14.4662506,12.6346035 C14.3405771,12.7478012 14.2701436,12.9014289 14.2705254,13.0615142 C14.2657379,13.2227777 14.3347554,13.3787238 14.4613989,13.4927951 C14.5880423,13.6068664 14.7611756,13.6690325 14.9402124,13.6647202 L14.9402124,13.6634286 Z M14.9402124,10.3270665 L19.3612941,10.3270665 C19.7187229,10.3121567 20,10.0467976 20,9.72450636 C20,9.40221507 19.7187229,9.13685607 19.3612941,9.1219462 L14.9402124,9.1219462 C14.5703545,9.1219462 14.2705254,9.39201072 14.2705254,9.72515219 C14.2705254,10.0582937 14.5703545,10.3283582 14.9402124,10.3283582 L14.9402124,10.3270665 Z M8.53731602,10.0041511 L3.63870591,10.0041511 C3.28127708,10.019061 3,10.28442 3,10.6067113 C3,10.9290026 3.28127708,11.1943616 3.63870591,11.2092714 L8.56743043,11.2092714 C8.92548166,11.1929505 9.20790289,10.9289556 9.21273913,10.6060654 C9.19508376,10.2781854 8.90152912,10.0171407 8.53731602,10.0054428 L8.53731602,10.0041511 Z M8.53731602,6 L3.63870591,6 C3.28127708,6.01490987 3,6.28026887 3,6.60256016 C3,6.92485145 3.28127708,7.19021045 3.63870591,7.20512032 L8.56743043,7.20512032 C8.74515924,7.20546422 8.91571869,7.14202278 9.04139223,7.02882508 C9.16706577,6.91562738 9.23749927,6.76199968 9.23711746,6.60191433 C9.22464427,6.26354664 8.91312748,5.99675429 8.53731602,6.00258332 L8.53731602,6 Z" id="形状"></path>
                <path d="M19.577039,4.76844692 L12.8818411,4.76844692 L12.8818411,2.3736738 C12.8818993,1.07143507 11.8302618,0.01229892 10.5249728,0 L2.37969956,0 C1.7437513,0.00278097394 1.13448122,0.255288871 0.683759017,0.702871186 C0.23625822,1.14296686 -0.0107586942,1.74688396 0.000359749346,2.3736738 L0.000359749346,21.4026254 C-0.000705337011,21.5543874 0.0592549821,21.7002418 0.166825692,21.8075563 C0.274396403,21.9148709 0.42059893,21.9746884 0.572723159,21.9736258 L12.3557426,21.9736258 C12.5056729,21.973736 12.6491793,21.9129128 12.753182,21.8051768 C12.8571847,21.6974408 12.9127091,21.5520886 12.9069564,21.4026254 L12.9069564,5.88934844 L19.6021542,5.88934844 C20.2927067,5.89648796 20.8507603,6.45321265 20.8579169,7.14212072 L20.8579169,20.8566805 L14.4231246,20.8566805 C14.1310095,20.8563139 13.8864088,21.0773854 13.8580196,21.3674256 C13.8296304,21.6574658 14.0267424,21.9215666 14.3134106,21.977582 L14.3134106,22 L21.4276366,22 C21.7413776,21.9943718 21.9943584,21.7419935 22,21.4289996 L22,7.14212072 C21.9617658,5.83041492 20.8923534,4.78275625 19.577039,4.76844692 Z M8.14563303,20.8566805 L4.7312804,20.8566805 L4.7312804,15.513277 C4.72983894,15.4194621 4.76656004,15.3290675 4.83306331,15.2627226 C4.89956658,15.1963777 4.99017703,15.159744 5.08421581,15.161182 L7.7993069,15.161182 C7.89334568,15.159744 7.98395614,15.1963777 8.05045941,15.2627226 C8.11696268,15.3290675 8.15368377,15.4194621 8.15224231,15.513277 L8.15224231,20.8527243 L8.14563303,20.8566805 Z M11.758264,20.8566805 L9.26921016,20.8566805 L9.26921016,15.513277 C9.26921538,14.7025473 8.61196659,14.0445051 7.7993069,14.0415992 L5.08421581,14.0415992 C4.26949049,14.0415992 3.60902513,14.7004918 3.60902513,15.513277 L3.60902513,20.8527243 L1.11997132,20.8527243 L1.11997132,2.3736738 C1.12716276,1.68324047 1.68759892,1.12589892 2.37969956,1.12090152 L10.5249728,1.12090152 C11.2155254,1.12804103 11.773579,1.68476573 11.7807355,2.3736738 L11.7807355,20.8527243 L11.758264,20.8527243 L11.758264,20.8566805 Z" id="形状"></path>
            </g>
        </g>
    </g>
</svg>